<svg width="512" height="512" viewBox="0 0 512 512" fill="none" xmlns="http://www.w3.org/2000/svg">
<rect width="512" height="512" fill="url(#paint0_linear_4009_2)"/>
<path d="M314.789 453C314.789 462.941 306.73 471 296.789 471H215.211C205.27 471 197.211 462.941 197.211 453V329.881C197.354 329.993 197.497 330.103 197.641 330.215C197.777 330.321 197.912 330.427 198.049 330.532C198.176 330.63 198.304 330.727 198.432 330.824C198.575 330.933 198.718 331.042 198.862 331.15C198.995 331.25 199.128 331.349 199.262 331.448C199.426 331.57 199.591 331.692 199.756 331.813C199.882 331.906 200.008 331.998 200.135 332.09C200.281 332.196 200.427 332.301 200.573 332.406C200.712 332.506 200.851 332.605 200.99 332.704C201.139 332.81 201.288 332.914 201.438 333.019C202.304 333.626 203.182 334.218 204.069 334.797C204.173 334.864 204.276 334.931 204.38 334.998C204.546 335.106 204.713 335.213 204.88 335.319C205.026 335.412 205.173 335.505 205.319 335.598C205.465 335.689 205.611 335.781 205.757 335.872C205.934 335.982 206.112 336.091 206.29 336.2C206.408 336.272 206.525 336.345 206.644 336.417C206.907 336.577 207.171 336.735 207.437 336.893C207.635 337.011 207.835 337.127 208.035 337.243C208.152 337.311 208.268 337.38 208.385 337.447C208.543 337.539 208.702 337.629 208.86 337.72C209.038 337.821 209.215 337.922 209.394 338.022C209.51 338.088 209.627 338.153 209.744 338.218C209.914 338.312 210.085 338.406 210.256 338.5C210.417 338.588 210.578 338.676 210.739 338.764C210.897 338.849 211.056 338.933 211.215 339.018C211.362 339.096 211.509 339.175 211.656 339.253C211.736 339.295 211.816 339.336 211.896 339.378C212.567 339.728 213.243 340.071 213.924 340.405C214.115 340.499 214.306 340.593 214.497 340.686C214.61 340.74 214.723 340.794 214.836 340.849C215.017 340.935 215.198 341.021 215.379 341.106C215.556 341.19 215.733 341.272 215.911 341.354C216.047 341.417 216.182 341.48 216.318 341.542C216.486 341.619 216.655 341.696 216.823 341.771C216.954 341.83 217.085 341.889 217.217 341.947C217.885 342.245 218.558 342.534 219.234 342.816C219.397 342.884 219.56 342.952 219.724 343.02C219.868 343.079 220.013 343.138 220.158 343.196C220.345 343.272 220.532 343.347 220.719 343.421C220.868 343.48 221.018 343.54 221.168 343.599C221.353 343.671 221.539 343.743 221.725 343.814C221.877 343.873 222.029 343.932 222.182 343.989C222.411 344.076 222.641 344.161 222.871 344.246C222.962 344.28 223.053 344.313 223.144 344.347C223.402 344.441 223.661 344.534 223.921 344.626C224.193 344.723 224.467 344.819 224.74 344.913C224.867 344.957 224.993 345.001 225.119 345.044C225.342 345.12 225.565 345.193 225.788 345.268C225.898 345.304 226.009 345.341 226.119 345.377C226.299 345.436 226.479 345.494 226.659 345.552C226.861 345.616 227.063 345.681 227.265 345.744C227.396 345.785 227.527 345.827 227.658 345.867C227.881 345.936 228.105 346.004 228.329 346.071C228.449 346.107 228.569 346.144 228.689 346.18C228.885 346.238 229.082 346.295 229.278 346.352C229.619 346.45 229.96 346.547 230.303 346.642C230.446 346.681 230.588 346.721 230.731 346.76C230.903 346.807 231.076 346.852 231.248 346.897C231.433 346.947 231.618 346.996 231.804 347.044C231.951 347.082 232.098 347.12 232.245 347.157C232.46 347.212 232.675 347.265 232.89 347.318C233.035 347.354 233.181 347.39 233.327 347.425C233.506 347.468 233.685 347.511 233.864 347.553C234.069 347.601 234.275 347.649 234.48 347.696C234.591 347.721 234.701 347.746 234.812 347.771C235.04 347.822 235.267 347.873 235.496 347.923C236.178 348.07 236.862 348.21 237.549 348.343C237.732 348.378 237.915 348.412 238.098 348.446C238.27 348.479 238.443 348.511 238.616 348.542C238.788 348.573 238.96 348.604 239.133 348.634C239.361 348.674 239.59 348.714 239.818 348.752C239.923 348.77 240.028 348.787 240.133 348.805C240.448 348.857 240.764 348.906 241.08 348.955C241.13 348.963 241.18 348.971 241.229 348.979C241.964 349.09 242.701 349.194 243.44 349.289C243.616 349.312 243.793 349.333 243.969 349.354C244.159 349.378 244.349 349.401 244.539 349.423C244.691 349.441 244.843 349.458 244.995 349.475C245.254 349.503 245.512 349.531 245.771 349.558C245.866 349.567 245.96 349.577 246.054 349.587C246.317 349.613 246.581 349.638 246.846 349.662C246.984 349.675 247.122 349.688 247.26 349.7C247.493 349.721 247.726 349.739 247.96 349.758C248.102 349.769 248.245 349.781 248.388 349.792C248.579 349.806 248.771 349.819 248.963 349.832C249.277 349.854 249.591 349.874 249.906 349.893C250.144 349.907 250.381 349.921 250.619 349.934C250.736 349.94 250.852 349.945 250.969 349.95C251.216 349.962 251.464 349.973 251.712 349.983C251.872 349.99 252.032 349.995 252.192 350.001C252.417 350.009 252.642 350.016 252.867 350.022C253.016 350.027 253.165 350.031 253.314 350.034C253.544 350.04 253.775 350.044 254.005 350.048C254.161 350.05 254.317 350.053 254.473 350.055C254.841 350.059 255.21 350.062 255.58 350.062C255.96 350.062 256.34 350.059 256.72 350.055C256.822 350.053 256.924 350.051 257.025 350.05C257.335 350.045 257.644 350.04 257.953 350.032C258.015 350.031 258.076 350.029 258.138 350.027C258.448 350.019 258.758 350.009 259.067 349.998C259.188 349.994 259.308 349.989 259.429 349.984C259.686 349.974 259.943 349.963 260.199 349.95C260.326 349.944 260.453 349.937 260.58 349.931C260.81 349.919 261.041 349.905 261.271 349.892C261.444 349.881 261.618 349.872 261.792 349.86C262.503 349.814 263.211 349.76 263.918 349.698C264.084 349.684 264.25 349.668 264.416 349.652C264.663 349.629 264.91 349.607 265.157 349.582C265.231 349.575 265.305 349.566 265.379 349.559C265.68 349.528 265.98 349.496 266.28 349.462C266.397 349.449 266.513 349.435 266.629 349.422C266.855 349.396 267.081 349.368 267.307 349.34C267.476 349.319 267.645 349.298 267.814 349.276C268.098 349.24 268.381 349.201 268.664 349.162C268.715 349.155 268.767 349.149 268.818 349.142C269.567 349.037 270.312 348.922 271.055 348.8C271.201 348.776 271.346 348.75 271.492 348.726C271.71 348.689 271.929 348.652 272.146 348.613C272.32 348.583 272.493 348.551 272.666 348.52C272.852 348.485 273.039 348.451 273.225 348.416C273.381 348.387 273.537 348.357 273.692 348.327C273.947 348.278 274.202 348.226 274.456 348.175C274.556 348.154 274.657 348.134 274.757 348.113C274.955 348.072 275.153 348.03 275.351 347.988C275.554 347.945 275.758 347.902 275.961 347.857C276.036 347.841 276.111 347.824 276.186 347.808C276.477 347.743 276.769 347.677 277.06 347.609C277.383 347.534 277.706 347.457 278.028 347.379C278.083 347.366 278.137 347.351 278.191 347.338C278.489 347.265 278.786 347.19 279.083 347.114C279.228 347.077 279.373 347.04 279.518 347.002C279.696 346.955 279.874 346.908 280.052 346.86C280.266 346.803 280.479 346.745 280.692 346.687C280.807 346.655 280.921 346.624 281.035 346.592C281.262 346.528 281.489 346.464 281.716 346.399C281.848 346.362 281.979 346.323 282.11 346.284C282.308 346.226 282.506 346.169 282.703 346.11C283.392 345.904 284.078 345.691 284.76 345.47C284.818 345.451 284.876 345.431 284.935 345.412C285.205 345.324 285.475 345.234 285.745 345.144C285.954 345.073 286.163 345.002 286.372 344.93C286.47 344.896 286.567 344.862 286.665 344.828C286.891 344.75 287.116 344.669 287.341 344.589C287.485 344.537 287.63 344.486 287.774 344.434C287.92 344.381 288.066 344.328 288.212 344.274C288.425 344.196 288.637 344.116 288.85 344.036C289.003 343.979 289.156 343.922 289.309 343.863C289.474 343.8 289.639 343.735 289.804 343.671C289.961 343.61 290.118 343.55 290.274 343.488C290.603 343.358 290.931 343.226 291.258 343.093C291.339 343.06 291.421 343.026 291.502 342.992C291.751 342.89 291.999 342.787 292.247 342.683C292.403 342.617 292.558 342.55 292.714 342.483C292.866 342.418 293.018 342.354 293.169 342.288C293.35 342.21 293.53 342.13 293.71 342.051C293.902 341.966 294.093 341.881 294.284 341.795C294.38 341.752 294.476 341.708 294.571 341.665C294.809 341.557 295.046 341.449 295.282 341.339C295.391 341.288 295.501 341.238 295.609 341.188C296.171 340.924 296.729 340.655 297.285 340.381C297.558 340.246 297.83 340.111 298.102 339.974C298.216 339.916 298.332 339.858 298.446 339.8C298.606 339.718 298.766 339.636 298.925 339.554C299.106 339.46 299.287 339.365 299.468 339.271C299.585 339.209 299.702 339.147 299.818 339.085C300.003 338.987 300.188 338.888 300.372 338.789C300.52 338.709 300.667 338.629 300.814 338.549C300.985 338.456 301.155 338.362 301.324 338.268C301.475 338.184 301.626 338.1 301.776 338.016C301.887 337.953 301.998 337.891 302.108 337.828C302.348 337.692 302.587 337.557 302.825 337.419C303.392 337.091 303.955 336.756 304.515 336.417C304.592 336.37 304.67 336.323 304.747 336.275C304.968 336.141 305.188 336.006 305.407 335.869C305.537 335.789 305.666 335.707 305.795 335.626C305.954 335.526 306.112 335.426 306.271 335.325C306.409 335.237 306.547 335.149 306.686 335.06C306.846 334.956 307.006 334.852 307.166 334.747C307.324 334.644 307.483 334.541 307.641 334.437C307.738 334.372 307.835 334.306 307.933 334.241C308.445 333.899 308.955 333.554 309.46 333.202C309.712 333.027 309.963 332.851 310.213 332.674C310.294 332.617 310.374 332.558 310.454 332.501C310.671 332.346 310.888 332.19 311.104 332.033C311.181 331.977 311.258 331.92 311.335 331.863C311.552 331.705 311.768 331.545 311.983 331.385C312.066 331.323 312.147 331.262 312.229 331.2C312.428 331.051 312.627 330.902 312.824 330.751C312.947 330.657 313.07 330.564 313.192 330.47C313.31 330.379 313.427 330.287 313.545 330.195C313.962 329.871 314.378 329.544 314.789 329.213V453ZM296.789 41C306.73 41 314.789 49.0589 314.789 59V181.946C314.51 181.722 314.23 181.5 313.949 181.278C313.886 181.228 313.821 181.18 313.758 181.13C313.523 180.946 313.287 180.763 313.051 180.581C313.021 180.558 312.99 180.535 312.96 180.512C311.483 179.381 309.972 178.293 308.429 177.249C308.38 177.216 308.33 177.183 308.281 177.149C308.038 176.986 307.794 176.823 307.55 176.662C307.471 176.61 307.392 176.559 307.313 176.508C307.07 176.348 306.827 176.189 306.582 176.032C306.523 175.994 306.464 175.956 306.404 175.918C305.17 175.129 303.915 174.367 302.643 173.635C302.576 173.596 302.509 173.559 302.442 173.521C302.193 173.378 301.943 173.236 301.692 173.096C301.6 173.044 301.508 172.994 301.416 172.942C301.208 172.827 300.999 172.711 300.79 172.597C300.678 172.535 300.566 172.474 300.453 172.413C300.212 172.283 299.97 172.154 299.728 172.025C299.651 171.985 299.575 171.945 299.498 171.904C299.275 171.787 299.052 171.67 298.828 171.555C298.725 171.502 298.622 171.449 298.52 171.396C297.559 170.906 296.589 170.43 295.609 169.972C295.501 169.921 295.391 169.871 295.282 169.82C295.032 169.704 294.781 169.589 294.529 169.475C294.481 169.453 294.432 169.431 294.384 169.409C294.114 169.288 293.844 169.167 293.573 169.048C293.476 169.005 293.379 168.962 293.281 168.92C292.995 168.795 292.709 168.672 292.422 168.55C292.393 168.538 292.365 168.526 292.336 168.514C291.308 168.079 290.27 167.662 289.224 167.263C289.134 167.228 289.043 167.195 288.953 167.161C288.696 167.064 288.438 166.968 288.18 166.873C288.088 166.839 287.996 166.806 287.904 166.772C287.667 166.686 287.43 166.6 287.191 166.516C287.059 166.469 286.926 166.422 286.793 166.375C286.593 166.305 286.393 166.237 286.192 166.168C286.047 166.118 285.902 166.068 285.756 166.019C285.483 165.927 285.209 165.837 284.935 165.747C284.876 165.728 284.818 165.708 284.76 165.689C284.047 165.458 283.33 165.235 282.609 165.021C282.544 165.001 282.479 164.982 282.414 164.963C282.143 164.883 281.872 164.803 281.6 164.726C281.471 164.689 281.341 164.653 281.212 164.616C280.982 164.552 280.751 164.488 280.521 164.425C280.406 164.394 280.291 164.362 280.177 164.331C279.911 164.26 279.645 164.19 279.379 164.121C279.286 164.097 279.193 164.073 279.101 164.049C278.798 163.971 278.495 163.896 278.191 163.821C278.137 163.808 278.083 163.794 278.028 163.78C277.675 163.694 277.321 163.61 276.967 163.528C276.707 163.468 276.446 163.41 276.186 163.352C276.111 163.335 276.036 163.318 275.961 163.302C275.758 163.257 275.554 163.214 275.351 163.171C275.153 163.129 274.955 163.087 274.757 163.046C274.657 163.025 274.556 163.005 274.456 162.984C274.196 162.932 273.935 162.88 273.674 162.829C273.524 162.8 273.374 162.771 273.225 162.743C273.039 162.708 272.852 162.674 272.666 162.64C272.493 162.608 272.32 162.577 272.146 162.546C271.044 162.351 269.934 162.174 268.818 162.018C268.767 162.01 268.715 162.004 268.664 161.997C268.381 161.958 268.098 161.919 267.814 161.883C267.645 161.861 267.476 161.84 267.307 161.819C267.081 161.791 266.855 161.764 266.629 161.737C266.513 161.724 266.397 161.71 266.28 161.697C265.98 161.663 265.68 161.632 265.379 161.601C265.305 161.593 265.231 161.585 265.157 161.577C264.91 161.552 264.663 161.53 264.416 161.507C264.25 161.491 264.084 161.475 263.918 161.461C263.213 161.399 262.507 161.345 261.798 161.299C261.617 161.287 261.435 161.277 261.254 161.267C261.031 161.253 260.808 161.24 260.585 161.229C260.455 161.222 260.325 161.215 260.195 161.209C259.94 161.197 259.685 161.185 259.429 161.175C259.308 161.17 259.188 161.166 259.067 161.161C258.758 161.15 258.448 161.14 258.138 161.132C258.076 161.13 258.015 161.128 257.953 161.127C257.644 161.119 257.335 161.114 257.025 161.109C256.924 161.108 256.822 161.106 256.72 161.104C256.34 161.1 255.96 161.098 255.58 161.098C255.21 161.098 254.841 161.1 254.473 161.104C254.317 161.106 254.161 161.109 254.005 161.111C253.775 161.115 253.544 161.12 253.314 161.125C253.165 161.129 253.016 161.133 252.867 161.137C252.642 161.143 252.417 161.15 252.192 161.158C252.032 161.164 251.872 161.169 251.712 161.176C251.631 161.179 251.551 161.182 251.471 161.186L250.718 161.221C250.685 161.222 250.652 161.224 250.619 161.226C250.381 161.238 250.144 161.253 249.906 161.267C249.591 161.285 249.277 161.305 248.963 161.327C248.771 161.34 248.579 161.353 248.388 161.367C248.245 161.378 248.102 161.39 247.96 161.401C247.775 161.416 247.591 161.43 247.406 161.446L247.113 161.472C247.024 161.48 246.935 161.489 246.846 161.497C246.581 161.521 246.317 161.546 246.054 161.572C245.96 161.582 245.866 161.592 245.771 161.602C245.512 161.628 245.254 161.656 244.995 161.685C244.843 161.702 244.691 161.719 244.539 161.736C244.349 161.758 244.159 161.781 243.969 161.805C243.793 161.826 243.616 161.848 243.44 161.87C242.701 161.965 241.964 162.069 241.229 162.181C241.18 162.188 241.13 162.196 241.08 162.204C240.766 162.253 240.452 162.302 240.139 162.354C240.024 162.372 239.91 162.392 239.796 162.411C239.581 162.447 239.367 162.484 239.153 162.521C238.973 162.553 238.792 162.585 238.612 162.618C238.441 162.649 238.269 162.681 238.098 162.713C237.915 162.747 237.732 162.781 237.549 162.816C236.862 162.949 236.178 163.089 235.496 163.236C235.267 163.286 235.04 163.338 234.812 163.389C234.701 163.413 234.591 163.438 234.48 163.463C234.275 163.51 234.069 163.558 233.864 163.606C233.685 163.649 233.506 163.691 233.327 163.734C233.181 163.77 233.035 163.805 232.89 163.841C232.681 163.892 232.473 163.944 232.266 163.997C232.112 164.036 231.958 164.075 231.804 164.115C231.618 164.163 231.433 164.213 231.248 164.262C231.076 164.308 230.903 164.353 230.731 164.399C230.4 164.489 230.07 164.58 229.74 164.674C229.657 164.697 229.575 164.721 229.492 164.745C229.229 164.821 228.966 164.898 228.703 164.976C228.604 165.005 228.504 165.035 228.405 165.064C228.125 165.148 227.845 165.234 227.566 165.32C227.49 165.344 227.414 165.368 227.338 165.392C227.093 165.468 226.848 165.546 226.604 165.625C226.477 165.666 226.351 165.706 226.226 165.747C226.154 165.77 226.083 165.793 226.012 165.816L225.276 166.062C225.225 166.079 225.174 166.097 225.123 166.114C225.022 166.149 224.922 166.183 224.821 166.218C224.475 166.337 224.129 166.459 223.784 166.582C223.57 166.658 223.357 166.735 223.144 166.812C223.053 166.846 222.962 166.88 222.871 166.913C222.641 166.998 222.411 167.083 222.182 167.17C222.029 167.228 221.877 167.286 221.725 167.345C221.523 167.422 221.323 167.5 221.122 167.578C221.017 167.619 220.912 167.661 220.807 167.702C220.518 167.816 220.231 167.933 219.944 168.05C219.906 168.065 219.868 168.08 219.83 168.096C219.563 168.205 219.297 168.316 219.031 168.428C218.948 168.463 218.864 168.496 218.781 168.531C218.46 168.667 218.139 168.806 217.819 168.945C217.724 168.987 217.629 169.028 217.534 169.07C217.262 169.19 216.991 169.311 216.721 169.434C216.692 169.447 216.663 169.46 216.634 169.473C216.363 169.595 216.093 169.719 215.824 169.844C215.69 169.906 215.556 169.97 215.422 170.033C215.226 170.125 215.031 170.217 214.836 170.311C214.723 170.365 214.61 170.419 214.497 170.474C214.265 170.586 214.034 170.699 213.803 170.812C213.711 170.858 213.618 170.903 213.526 170.948C213.293 171.064 213.06 171.183 212.828 171.301C212.604 171.415 212.38 171.531 212.156 171.646C211.989 171.733 211.822 171.819 211.656 171.906C211.509 171.984 211.362 172.063 211.215 172.142C211.051 172.229 210.887 172.316 210.724 172.404C210.596 172.473 210.47 172.542 210.343 172.611C210.113 172.737 209.883 172.864 209.654 172.991C209.579 173.033 209.505 173.075 209.43 173.117C209.215 173.238 209 173.359 208.786 173.481C208.677 173.544 208.567 173.606 208.458 173.669C207.521 174.209 206.595 174.765 205.679 175.336C205.609 175.38 205.539 175.423 205.469 175.467C205.245 175.607 205.023 175.748 204.801 175.89C204.698 175.955 204.596 176.021 204.494 176.087C204.305 176.209 204.115 176.331 203.927 176.454C203.802 176.536 203.676 176.618 203.552 176.7C203.358 176.828 203.165 176.958 202.973 177.087C202.886 177.145 202.798 177.202 202.712 177.261C202.108 177.669 201.51 178.085 200.916 178.507C200.875 178.536 200.834 178.565 200.793 178.595C200.539 178.775 200.287 178.957 200.035 179.141C199.982 179.179 199.929 179.218 199.876 179.257C199.634 179.434 199.393 179.613 199.152 179.792C199.088 179.84 199.023 179.888 198.959 179.937C198.421 180.34 197.887 180.748 197.358 181.162C197.309 181.201 197.26 181.24 197.211 181.278V59C197.211 49.0589 205.27 41 215.211 41H296.789Z" fill="white"/>
<path d="M436.869 353.73C443.899 360.759 443.899 372.157 436.869 379.186L379.186 436.87C372.156 443.899 360.759 443.899 353.73 436.87L266.318 349.458C309.919 344.526 344.526 309.919 349.458 266.318L436.869 353.73ZM132.814 75.1294C139.843 68.1001 151.24 68.1002 158.27 75.1294L244.841 161.701C201.241 166.633 166.634 201.242 161.701 244.842L75.1292 158.27C68.0999 151.241 68.0998 139.843 75.1292 132.814L132.814 75.1294Z" fill="white"/>
<path d="M181.278 197.211C168.638 213.28 161.098 233.549 161.098 255.58C161.098 277.996 168.904 298.59 181.946 314.789H59C49.0589 314.789 41.0001 306.73 41 296.789V215.211C41 205.27 49.0589 197.211 59 197.211H181.278ZM453 197.211C462.941 197.211 471 205.27 471 215.211V296.789C471 306.73 462.941 314.789 453 314.789H329.214C342.256 298.59 350.062 277.996 350.062 255.58C350.062 233.549 342.522 213.28 329.882 197.211H453Z" fill="white"/>
<path d="M161.791 267.068C167.063 310.566 201.893 344.951 245.599 349.539L158.271 436.869C151.242 443.899 139.844 443.899 132.815 436.869L75.1304 379.185C68.1009 372.155 68.1009 360.758 75.1304 353.729L161.791 267.068ZM353.73 75.1292C360.759 68.1002 372.157 68.0999 379.186 75.1292L436.871 132.814C443.9 139.843 443.899 151.239 436.871 158.269L349.54 245.599C344.951 201.893 310.566 167.063 267.068 161.79L353.73 75.1292Z" fill="white"/>
<defs>
<linearGradient id="paint0_linear_4009_2" x1="256" y1="0" x2="256" y2="512" gradientUnits="userSpaceOnUse">
<stop stop-color="#6F9CFF"/>
<stop offset="1" stop-color="#484299"/>
</linearGradient>
</defs>
</svg>
