<svg width="16" height="16" viewBox="0 0 466 631" fill="none" xmlns="http://www.w3.org/2000/svg">
<path d="M197.5 630.5V458L0 359V532L197.5 630.5Z" fill="#E3E3E3"/>
<path d="M0 359L197.5 458L395.033 359.785L197.5 261L0 359Z" fill="white"/>
<path d="M197.5 458V630.5L395 532V376L395.033 359.785L197.5 458Z" fill="#A1A1A1"/>
<path d="M466 324.5V99L395.5 133.5L395.033 359.785L466 324.5Z" fill="#A1A1A1"/>
<path d="M197.5 34.5V261L395.033 359.785L395.5 133.5L311 91.25L282.5 105L255 91V74L265.702 68.6009L197.5 34.5Z" fill="#E3E3E3"/>
<path d="M268 0L197.5 34.5L265.702 68.6009L310.5 46L338 60V77L311 91.25L395.5 133.5L466 99L268 0Z" fill="white"/>
<path d="M338 60L310.5 46L265.702 68.6009L255 74L282.5 87.5L338 60Z" fill="white"/>
<path d="M255 91L282.5 105V87.5L255 74V91Z" fill="#E3E3E3"/>
<path d="M282.5 105L311 91.25L338 77V60L282.5 87.5V105Z" fill="#A1A1A1"/>
</svg>
