<svg width="16" height="16" viewBox="0 0 282 655" fill="none" xmlns="http://www.w3.org/2000/svg">
<path d="M141 251.5L56 209.567V389.065L113 417.376L169 445.19V237.562L141.06 251.47L141 251.5Z" fill="white"/>
<path d="M56 597.5L113 625.748V417.376L56 389.065V597.5Z" fill="white"/>
<path d="M169 653.5V445.19L113 417.376V625.748L169 653.5Z" fill="white"/>
<path d="M0.5 153.398V361.5L56 389.065V209.567L28.5 196V167.75L0.5 153.398Z" fill="white"/>
<path d="M28.5 57.5V139.5V139.643V167.75V196L56 209.567L141 251.5L141.06 251.47V113.5L28.5 57.5Z" fill="white"/>
<path d="M253.5 195.5V57.5L141.06 113.5V251.47L169 237.562L169.062 237.531L224.63 209.871L253.5 195.5Z" fill="#AAAAAA"/>
<path d="M28.5 139.5L0.5 153.398L28.5 167.75V139.643V139.5Z" fill="#D9D9D9"/>
<path d="M253.5 57.5L141 1.5L28.5 57.5L141.06 113.5L253.5 57.5Z" fill="#D9D9D9"/>
<path d="M169 445.19L226 473.5L224.922 266L169.062 237.531L169 237.562V445.19Z" fill="white"/>
<path d="M226 473.5L169 445.19V653.5L226 625.5V473.5Z" fill="#7E7E7E"/>
<path d="M226 473.5L281.5 446.5V238.5L224.922 266L226 473.5Z" fill="#7E7E7E"/>
<path d="M281.5 238.5L224.63 209.871L169.062 237.531L224.922 266L281.5 238.5Z" fill="#D9D9D9"/>
<path d="M0.5 153.398V361.5L56 389.065M0.5 153.398L28.5 139.5M0.5 153.398L28.5 167.75M28.5 139.5V167.75M28.5 139.5V57.5M28.5 139.5V139.643M253.5 195.5V57.5M253.5 195.5L224.63 209.871M253.5 195.5L169.062 237.531M253.5 57.5L141 1.5L28.5 57.5M253.5 57.5L141.06 113.5M28.5 57.5V139.643M28.5 57.5L141.06 113.5M28.5 139.643V167.75M226 473.5L281.5 446.5V238.5M226 473.5L169 445.19M226 473.5L224.922 266M226 473.5V625.5L169 653.5M281.5 238.5L224.63 209.871M281.5 238.5L224.922 266M224.63 209.871L169.062 237.531M169 445.19V237.562M169 445.19V653.5M169 445.19L113 417.376M169 237.562L141.06 251.47M169 237.562L169.062 237.531M169 237.5L169.062 237.531M224.922 266L169.062 237.531M56 209.5V209.567M169 653.5L113 625.748M113 625.748L56 597.5V389.065M113 625.748V417.376M113 417.376L56 389.065M28.5 167.75V196L56 209.567M141.06 251.47L141 251.5L56 209.567M141.06 251.47V113.5M56 209.567V389.065" stroke="white"/>
</svg>
