<svg width="16" height="16" viewBox="0 0 512 512" fill="none" xmlns="http://www.w3.org/2000/svg">
<mask id="mask0_4013_114" style="mask-type:alpha" maskUnits="userSpaceOnUse" x="0" y="0" width="512" height="512">
<rect width="512" height="512" rx="90" fill="#D9D9D9"/>
</mask>
<g mask="url(#mask0_4013_114)">
<rect width="512" height="512" fill="url(#paint0_linear_4013_114)"/>
<path d="M284 70C293.941 70 302 78.0589 302 88V425C302 434.941 293.941 443 284 443H204C194.059 443 186 434.941 186 425V88C186 78.0589 194.059 70 204 70H284ZM215.5 384C207.492 384 201 390.492 201 398.5C201 406.508 207.492 413 215.5 413H271.5C279.508 413 286 406.508 286 398.5C286 390.492 279.508 384 271.5 384H215.5ZM215.5 130C207.492 130 201 136.492 201 144.5C201 152.508 207.492 159 215.5 159H271.5C279.508 159 286 152.508 286 144.5C286 136.492 279.508 130 271.5 130H215.5ZM215.5 94C207.492 94 201 100.492 201 108.5C201 116.508 207.492 123 215.5 123H271.5C279.508 123 286 116.508 286 108.5C286 100.492 279.508 94 271.5 94H215.5Z" fill="white"/>
<path d="M140 161C149.941 161 158 169.059 158 179V425C158 434.941 149.941 443 140 443H55C45.0589 443 37 434.941 37 425V179C37 169.059 45.0589 161 55 161H140ZM73 342C63.0589 342 55 350.059 55 360V409C55 418.941 63.0589 427 73 427H122C131.941 427 140 418.941 140 409V360C140 350.059 131.941 342 122 342H73ZM69.5 217C61.4919 217 55 223.492 55 231.5C55 239.508 61.4919 246 69.5 246H125.5C133.508 246 140 239.508 140 231.5C140 223.492 133.508 217 125.5 217H69.5ZM69.5 181C61.4919 181 55 187.492 55 195.5C55 203.508 61.4919 210 69.5 210H125.5C133.508 210 140 203.508 140 195.5C140 187.492 133.508 181 125.5 181H69.5Z" fill="white"/>
<path d="M400.902 149.027C410.447 146.251 420.436 151.738 423.212 161.284L491.916 397.496C494.692 407.041 489.204 417.03 479.659 419.806L398.041 443.545C388.495 446.321 378.506 440.834 375.73 431.289L307.027 195.077C304.251 185.531 309.738 175.543 319.284 172.766L400.902 149.027ZM456.478 340.109C453.702 330.563 443.713 325.076 434.167 327.852L387.118 341.537C377.572 344.313 372.085 354.302 374.861 363.847L388.545 410.898C391.322 420.443 401.311 425.931 410.856 423.155L457.907 409.469C467.452 406.693 472.94 396.704 470.164 387.159L456.478 340.109ZM420.59 216.722C418.354 209.033 410.308 204.612 402.619 206.848L348.846 222.488C341.157 224.724 336.737 232.771 338.973 240.46C341.21 248.15 349.256 252.571 356.946 250.334L410.717 234.694C418.407 232.457 422.827 224.412 420.59 216.722ZM410.537 182.155C408.3 174.465 400.253 170.044 392.564 172.281L338.792 187.92C331.103 190.157 326.682 198.204 328.918 205.893C331.155 213.582 339.202 218.003 346.891 215.767L400.664 200.126C408.353 197.89 412.773 189.844 410.537 182.155Z" fill="white"/>
</g>
<defs>
<linearGradient id="paint0_linear_4013_114" x1="256" y1="0" x2="256" y2="512" gradientUnits="userSpaceOnUse">
<stop stop-color="#6F9CFF"/>
<stop offset="1" stop-color="#484299"/>
</linearGradient>
</defs>
</svg>
